<svg xmlns="http://www.w3.org/2000/svg" xmlns:xlink="http://www.w3.org/1999/xlink" width="36" height="16.753" viewBox="0 0 36 16.753">
  <defs>
    <clipPath id="clip-path">
      <rect width="36" height="16.753" fill="none"/>
    </clipPath>
  </defs>
  <g id="icon_shoes" clip-path="url(#clip-path)">
    <path id="Path_47" data-name="Path 47" d="M20.2,163.8l.2,1.264,3.428,1.461,4.5.81,3.527.25H52.494l.969-.2v-2.906H48.255l-3.587.378-5.593.053-3.194.3-3.466-.053-1.567-.25-3.126-.151-3.156-.28H22.523Z" transform="translate(-18.673 -151.406)" fill="#00c569"/>
    <path id="Path_48" data-name="Path 48" d="M33.984.705A5.416,5.416,0,0,0,32.508.94a.6.6,0,0,0-.416.605V3.127a6.645,6.645,0,0,1-3.951,1.067,4.838,4.838,0,0,1-.916-.045L23.26.4A1.509,1.509,0,0,0,22.17.047c-2.149,0-7.061,2.422-9.649,3.943C9.448,5.806,3.212,6.858,3.151,6.873l-.129.038C-.134,8.213-.209,10.816.207,12.058c.87,4.473,10.732,4.738,12.98,4.738h21.63a.607.607,0,0,0,.605-.605V12.966a2.635,2.635,0,0,0,.605-1.287V2.507a1.794,1.794,0,0,0-2.043-1.8ZM9.857,6.457l.8,1.453a.61.61,0,0,0,1.06-.605l-.711-1.287a14.39,14.39,0,0,0,1.461-.643l1.014,1.544A.6.6,0,1,0,14.5,6.276c0-.008-.008-.008-.008-.015L13.542,4.8c.439-.25.885-.5,1.347-.742L16.1,5.829a.6.6,0,0,0,1.029-.636.23.23,0,0,0-.038-.053L15.957,3.506c.537-.265,1.082-.53,1.612-.764L18.984,4.8a.606.606,0,1,0,1.007-.674c0-.008-.008-.008-.008-.015L18.727,2.295a11.4,11.4,0,0,1,3.444-1,.735.735,0,0,1,.257,0l2.422,2.27a19.22,19.22,0,0,1-9.536,6.8,25.962,25.962,0,0,0-5.154-1.113,7.352,7.352,0,0,1-4.238-1.71,36.252,36.252,0,0,0,3.935-1.09Zm-6.441,1.6c.151,0,.537-.1,1.075-.2a8.815,8.815,0,0,0,5.631,2.6c1.99.1,6.191,1.438,9.082,2.422H16.554c-10.966.045-14.259-.825-15.242-1.43C1.168,10.907.971,9.091,3.416,8.062Zm30.8,7.515H13.474C10.81,15.615,4.46,15.2,2.182,13.11c1.892.5,5.82,1.022,14.395,1.022,2.013,0,4.041,0,5.964-.076,1.816-.045,3.527-.1,5.063-.159,3.716-.136,6.312-.288,6.342-.3a1.46,1.46,0,0,0,.257,0Zm.605-4.041c-.038.174-.227.87-.908.87-.045,0-2.263.136-5.525.265a8.689,8.689,0,0,1,6.433-5.918Zm0-6.024c-1.6.378-6.456,1.945-7.7,7.213-1.377.045-2.891.1-4.473.136-.537-.2-2.831-1.052-5.4-1.877A20.626,20.626,0,0,0,25.72,4.429l.787.757a.659.659,0,0,0,.325.159,9,9,0,0,0,1.279.076,7.469,7.469,0,0,0,4.965-1.6.6.6,0,0,0,.2-.447V1.984a3.992,3.992,0,0,1,.681-.076c.833,0,.84.363.848.605Z" transform="translate(-0.027 -0.043)"/>
  </g>
</svg>
