<svg id="icon_logout" xmlns="http://www.w3.org/2000/svg" width="20" height="20" viewBox="0 0 20 20">
  <g id="Group_199" data-name="Group 199">
    <path id="Path_24" data-name="Path 24" d="M26.9,0H18.715A2.692,2.692,0,0,0,16,2.715V5.828a1,1,0,1,0,2,0V2.715A.716.716,0,0,1,18.715,2H26.9a.716.716,0,0,1,.719.719V17.285A.716.716,0,0,1,26.9,18H18.715A.716.716,0,0,1,18,17.285V13.772a1,1,0,1,0-2,0v3.513A2.717,2.717,0,0,0,18.715,20H26.9a2.717,2.717,0,0,0,2.715-2.715V2.715A2.743,2.743,0,0,0,26.9,0Z" transform="translate(-9.613)" fill="#111"/>
    <path id="Path_25" data-name="Path 25" d="M15.17,18.439c.04,0,.04,0,.08-.04a.147.147,0,0,0,.12-.04.139.139,0,0,0,.08-.04c.04,0,.04-.04.08-.04A.933.933,0,0,0,15.808,18c0-.04.04-.04.04-.08a.139.139,0,0,1,.04-.08c0-.04.04-.08.04-.12s0-.04.04-.08a.68.68,0,0,0,0-.4c0-.04,0-.04-.04-.08a.147.147,0,0,0-.04-.12.139.139,0,0,0-.04-.08c0-.04-.04-.04-.04-.08-.04-.04-.08-.12-.12-.16l-3.673-3.673a.988.988,0,0,0-1.4,1.4L12.575,16.4H1a1.049,1.049,0,0,0-1,1.038.988.988,0,0,0,1,1H15.17Z" transform="translate(0 -7.66)" fill="#111"/>
  </g>
  <path id="Path_26" data-name="Path 26" d="M25.949,31.006l1.756-1.756a.964.964,0,0,1,1.4,0h0a.964.964,0,0,1,0,1.4L27.347,32.4a.964.964,0,0,1-1.4,0h0A.964.964,0,0,1,25.949,31.006Z" transform="translate(-15.41 -17.393)" fill="#00c569"/>
</svg>
