<svg xmlns="http://www.w3.org/2000/svg" xmlns:xlink="http://www.w3.org/1999/xlink" width="16.704" height="20" viewBox="0 0 16.704 20">
  <defs>
    <clipPath id="clip-path">
      <rect width="16.704" height="20" fill="none"/>
    </clipPath>
  </defs>
  <g id="icon_explore" clip-path="url(#clip-path)">
    <path id="Path_7" data-name="Path 7" d="M4.913-.01A5.236,5.236,0,0,0,0,4.986,5.094,5.094,0,0,0,1.6,8.9a1,1,0,0,0,1.639-.48h0a1.023,1.023,0,0,0-.24-.959A3.047,3.047,0,0,1,2,5.146a3.279,3.279,0,0,1,3-3.158,3.192,3.192,0,0,1,3.2,2.118,1.048,1.048,0,0,0,.719.64h.08A1,1,0,0,0,10.07,3.427,5.153,5.153,0,0,0,4.913-.01Z" transform="translate(0.005 0.017)" fill="#00c569"/>
    <path id="Path_8" data-name="Path 8" d="M22.4,16.593,11.932,10.478a1.031,1.031,0,0,0-1.119.04.974.974,0,0,0-.44,1l1.639,12.031a1.021,1.021,0,0,0,1.6.719.7.7,0,0,0,.2-.16l2.878-3.038,3.118,4.676a1.009,1.009,0,0,0,1.679-1.119l-3.118-4.636,3.877-1.519a.874.874,0,0,0,.2-.12A1.029,1.029,0,0,0,22.4,16.593Zm-3.078.879-2.4.919a4.368,4.368,0,0,0-.6.32,2.752,2.752,0,0,0-.52.44l-1.8,1.879a.219.219,0,0,1-.36-.12l-1-7.314c-.04-.16.16-.28.32-.2l6.355,3.717C19.487,17.193,19.487,17.433,19.327,17.473Z" transform="translate(-6.215 -6.194)" fill="#111"/>
  </g>
</svg>
