<svg xmlns="http://www.w3.org/2000/svg" width="14.513" height="20" viewBox="0 0 14.513 20">
  <g id="icon_edit_profile" transform="translate(0 0.002)">
    <g id="Group_186" data-name="Group 186" transform="translate(0.046 -0.002)">
      <path id="Path_11" data-name="Path 11" d="M14.147,2.856,10.8.244a1.117,1.117,0,0,0-1.592.2l-7.714,9.8a.906.906,0,0,0-.2.449L.148,15.549a1.064,1.064,0,0,0,.408,1.143,1.184,1.184,0,0,0,1.224.122L6.229,14.57a1.6,1.6,0,0,0,.408-.327l7.714-9.755A1.2,1.2,0,0,0,14.147,2.856Zm-8.979,10L2.6,14.162l.653-2.816L7.78,5.59,9.7,7.1Zm5.755-7.347L9,4,10.27,2.407l1.918,1.51Z" transform="translate(-0.112 0.002)" fill="#111"/>
    </g>
    <g id="Group_187" data-name="Group 187" transform="translate(0 17.957)">
      <path id="Path_12" data-name="Path 12" d="M13.265,46.041H1.02A1.01,1.01,0,0,1,0,45.02H0A1.01,1.01,0,0,1,1.02,44H13.265a1.01,1.01,0,0,1,1.02,1.02h0A1.01,1.01,0,0,1,13.265,46.041Z" transform="translate(0 -44)" fill="#00c569"/>
    </g>
  </g>
</svg>
