<svg xmlns="http://www.w3.org/2000/svg" xmlns:xlink="http://www.w3.org/1999/xlink" width="18.793" height="20" viewBox="0 0 18.793 20">
  <defs>
    <clipPath id="clip-path">
      <rect width="18.793" height="20" fill="none"/>
    </clipPath>
  </defs>
  <g id="icon_profile" clip-path="url(#clip-path)">
    <path id="Path_5" data-name="Path 5" d="M18.7,16.84l-.52-2.44a4.858,4.858,0,0,0-2.2-3.12L12.9,9.36a4.108,4.108,0,0,0,.84-2.2l.24-2.28A4.34,4.34,0,0,0,9.624,0h-.48A4.457,4.457,0,0,0,4.7,4.92l.24,2.28a4.773,4.773,0,0,0,.84,2.2L2.7,11.32A4.907,4.907,0,0,0,.544,14.4l-.52,2.44A2.637,2.637,0,0,0,2.584,20h13.56A2.6,2.6,0,0,0,18.7,16.84ZM7.3,2.8A2.451,2.451,0,0,1,9.144,2h.48a2.451,2.451,0,0,1,1.84.8,2.339,2.339,0,0,1,.6,1.88l-.24,2.28a2.453,2.453,0,0,1-4.88,0L6.7,4.68A2.339,2.339,0,0,1,7.3,2.8Zm9.32,14.96a.605.605,0,0,1-.48.24H2.584a.684.684,0,0,1-.48-.24.631.631,0,0,1-.12-.52L2.5,14.8A2.823,2.823,0,0,1,3.784,13l3.64-2.28a4.5,4.5,0,0,0,1.92.44,4.369,4.369,0,0,0,1.92-.44L14.9,13a2.928,2.928,0,0,1,1.28,1.8l.52,2.44A.429.429,0,0,1,16.624,17.76Z" transform="translate(0.026)" fill="#111"/>
    <path id="Path_6" data-name="Path 6" d="M28.5,38h-2a.99.99,0,0,1-1-1h0a.99.99,0,0,1,1-1h2a.99.99,0,0,1,1,1h0A.99.99,0,0,1,28.5,38Z" transform="translate(-15.289 -21.6)" fill="#00c569"/>
  </g>
</svg>
