<svg xmlns="http://www.w3.org/2000/svg" width="17.603" height="20" viewBox="0 0 17.603 20">
  <g id="icon_notifications" transform="translate(0.006 0.006)">
    <path id="Path_22" data-name="Path 22" d="M18.4,41v.4a1.2,1.2,0,1,1-2.4,0V41H14v.4a3.2,3.2,0,1,0,6.4,0V41Z" transform="translate(-8.404 -24.606)" fill="#00c569"/>
    <path id="Path_23" data-name="Path 23" d="M16.554,14.394h0a.973.973,0,0,1-.96-.96V8.8a6.8,6.8,0,0,0-5.8-6.719V1.036A1.007,1.007,0,0,0,8.915,0,1.021,1.021,0,0,0,7.8,1v1.08A6.8,6.8,0,0,0,2,8.8v4.639a.973.973,0,0,1-.96.96h0a1.007,1.007,0,0,0-1.04.88,1.021,1.021,0,0,0,1,1.12h15.6a1.021,1.021,0,0,0,1-1.12A1.007,1.007,0,0,0,16.554,14.394ZM4,14.394V8.955A4.9,4.9,0,0,1,8.315,4.036,4.785,4.785,0,0,1,13.594,8.8v5.6Z" transform="translate(0 0)" fill="#111"/>
  </g>
</svg>
