<svg id="icon_location" xmlns="http://www.w3.org/2000/svg" width="13.972" height="20" viewBox="0 0 13.972 20">
  <path id="Path_9" data-name="Path 9" d="M10.259,13.972a.988.988,0,0,0,1.357-.4c1.277-2.475,2.355-5.03,2.355-6.587A6.986,6.986,0,0,0,0,6.986c0,2.994,4.351,9.98,6.267,12.575A1.058,1.058,0,0,0,7.146,20a1.174,1.174,0,0,0,.918-.479c.439-.6.958-1.437,1.557-2.435a1.032,1.032,0,0,0-.359-1.4h0a1.011,1.011,0,0,0-1.317.359c-.279.439-.519.878-.8,1.277C4.87,14.012,2,8.862,2,6.986a4.99,4.99,0,0,1,9.98,0c0,1.118-.918,3.353-2.116,5.669a.976.976,0,0,0,.4,1.317Z" fill="#111"/>
  <path id="Path_10" data-name="Path 10" d="M12.393,11a1.4,1.4,0,1,1-1.4,1.4,1.414,1.414,0,0,1,1.4-1.4m0-2a3.393,3.393,0,1,0,3.393,3.393A3.39,3.39,0,0,0,12.393,9Z" transform="translate(-5.407 -5.407)" fill="#00c569"/>
</svg>
